<svg xmlns="http://www.w3.org/2000/svg" style="display: none;">
  <defs>
    <symbol id="icon-science" width="48" height="48" viewBox="0 0 48 48">
      <path d="M24.092 2.1c-1.575 0-3.046.717-4.3 1.891-1.254 1.175-2.327 2.81-3.222 4.792-.187.415-.366.847-.537 1.292a24.773 24.773 0 0 0-1.39-.18 20.9 20.9 0 0 0-1.582-.1c-1.54-.037-2.947.12-4.18.493-1.644.499-3 1.414-3.788 2.778-.787 1.364-.902 2.997-.511 4.67.39 1.673 1.27 3.42 2.54 5.186.265.37.55.741.85 1.113a24.69 24.69 0 0 0-.85 1.112c-1.269 1.765-2.149 3.513-2.54 5.186-.39 1.673-.275 3.306.512 4.67.788 1.363 2.145 2.279 3.789 2.777 1.644.499 3.597.61 5.76.394.454-.045.917-.106 1.389-.18.167.436.347.868.538 1.294.895 1.982 1.968 3.617 3.222 4.792 1.254 1.174 2.725 1.892 4.3 1.892 1.575 0 3.046-.718 4.3-1.892 1.253-1.175 2.326-2.81 3.22-4.792.193-.426.372-.858.54-1.294.47.074.933.135 1.386.18 2.164.216 4.118.105 5.761-.394 1.645-.498 3.001-1.414 3.789-2.778.787-1.364.901-2.996.511-4.67-.39-1.672-1.27-3.42-2.54-5.185a24.94 24.94 0 0 0-.849-1.112c.294-.363.578-.734.85-1.113 1.27-1.766 2.15-3.513 2.54-5.186.39-1.673.276-3.306-.511-4.67-.788-1.364-2.145-2.28-3.788-2.778-1.233-.373-2.64-.53-4.18-.493a20.9 20.9 0 0 0-1.582.1c-.453.045-.917.106-1.389.18a24.877 24.877 0 0 0-.537-1.292c-.895-1.982-1.968-3.618-3.222-4.792-1.254-1.175-2.725-1.892-4.3-1.892Zm0 1.751c1.05 0 2.08.462 3.102 1.419 1.02.957 1.996 2.405 2.822 4.234.134.299.262.6.383.904-2.008.447-4.134 1.132-6.308 2.047-2.173-.915-4.3-1.6-6.307-2.046.124-.31.252-.613.383-.905.826-1.83 1.802-3.278 2.823-4.235 1.021-.956 2.051-1.418 3.102-1.418Zm-11.587 7.693a18.711 18.711 0 0 1 1.963.094c.32.032.646.072.978.12-.618 1.963-1.088 4.146-1.383 6.486-1.879 1.425-3.536 2.925-4.926 4.44a21.511 21.511 0 0 1-.593-.785c-1.172-1.63-1.938-3.199-2.256-4.562-.318-1.362-.203-2.485.323-3.395.525-.91 1.44-1.57 2.779-1.977.879-.267 1.93-.41 3.115-.42Zm23.172 0c1.184.011 2.236.155 3.115.421 1.34.406 2.254 1.067 2.78 1.977.525.91.64 2.033.322 3.395-.318 1.363-1.084 2.932-2.256 4.562-.191.266-.39.528-.593.786-1.39-1.516-3.046-3.015-4.925-4.44-.294-2.34-.765-4.524-1.382-6.486.33-.049.657-.09.976-.121a18.78 18.78 0 0 1 1.963-.094Zm-4.68.529a34.027 34.027 0 0 1 1.14 4.753 47.596 47.596 0 0 0-5.826-3.364 34.032 34.032 0 0 1 4.686-1.389Zm-13.81 0c1.485.32 3.06.785 4.684 1.39a47.666 47.666 0 0 0-5.824 3.362 34 34 0 0 1 1.14-4.752Zm6.904 2.293a44.814 44.814 0 0 1 4.315 2.193c1.444.833 2.8 1.721 4.058 2.642.169 1.55.26 3.168.26 4.835 0 1.665-.091 3.283-.26 4.832a44.898 44.898 0 0 1-4.057 2.641 44.844 44.844 0 0 1-4.316 2.193 44.823 44.823 0 0 1-4.316-2.193 44.825 44.825 0 0 1-4.056-2.64 44.827 44.827 0 0 1-.259-4.834c0-1.666.09-3.285.259-4.835a44.852 44.852 0 0 1 4.057-2.641 44.812 44.812 0 0 1 4.315-2.192Zm.119 2.636-5.016 3.096 5.016 3.095 5.015-3.095-5.015-3.096Zm-10.384 3.67a47.736 47.736 0 0 0 0 6.726 33.97 33.97 0 0 1-3.546-3.364 34.01 34.01 0 0 1 3.546-3.363Zm20.532 0a34.019 34.019 0 0 1 3.545 3.363 33.997 33.997 0 0 1-3.545 3.362 47.72 47.72 0 0 0 0-6.725Zm-16.294.787v6.112l5.268 3.251V24.71l-5.268-3.251Zm12.287.003-5.267 3.25v6.11l5.267-3.25v-6.11ZM9.137 25.385c1.39 1.516 3.047 3.015 4.926 4.44.294 2.34.765 4.523 1.382 6.485-.33.048-.657.088-.976.12-1.997.2-3.739.08-5.078-.327-1.34-.406-2.254-1.067-2.78-1.977-.524-.91-.64-2.032-.322-3.395s1.085-2.932 2.256-4.562c.191-.266.389-.527.592-.784Zm29.908 0c.207.262.405.524.592.784 1.171 1.63 1.938 3.199 2.256 4.562.318 1.362.203 2.485-.323 3.395-.525.91-1.44 1.571-2.779 1.977-1.339.406-3.08.527-5.078.327-.326-.033-.65-.073-.975-.12.618-1.963 1.088-4.147 1.382-6.487C36 28.4 37.655 26.9 39.045 25.385Zm-6.908 5.858a34.013 34.013 0 0 1-1.14 4.753 34.012 34.012 0 0 1-4.685-1.39 47.83 47.83 0 0 0 5.825-3.363Zm-16.09 0a47.658 47.658 0 0 0 5.823 3.363 33.985 33.985 0 0 1-4.684 1.39 33.99 33.99 0 0 1-1.14-4.752Zm8.096.08.064.04.064-.04h-.127Zm-.052 4.291c2.174.915 4.3 1.6 6.309 2.046-.121.305-.25.607-.384.907-.826 1.829-1.801 3.277-2.823 4.234-1.02.957-2.05 1.418-3.101 1.418-1.05 0-2.08-.461-3.102-1.418-1.021-.957-1.997-2.405-2.823-4.234-.134-.3-.262-.602-.384-.907 2.008-.446 4.135-1.131 6.308-2.046Z"/>
    </symbol>
    <symbol id="icon-medicine" width="48" height="49" viewBox="0 0 48 49">
      <g clip-path="url(#a)">
        <path d="M13.108 18.573H-.184c-.409 0-.739.317-.739.708v4.251c0 .392.33.709.739.709h.738v16.295c0 .392.33.709.739.709H11.63c.408 0 .739-.317.739-.709V24.241h.738c.408 0 .738-.317.738-.709v-4.25c0-.392-.33-.71-.738-.71ZM4.985 32.034v-1.417h4.43V29.2h-4.43v-1.417h5.907v9.21H4.986v-3.542h1.477v-1.417H4.985Zm5.907-5.668H4.247c-.408 0-.738.317-.738.709v10.627c0 .392.33.709.738.709h6.646v1.417H2.031V24.24h8.861v2.125Zm1.478-3.542H.553V19.99H12.37v2.834Zm10.523-4.118v-5.18c0-.404-.33-.73-.739-.73h-.738V9.15h1.477V7.69H14.77v1.46h5.169v3.646H19.2a.733.733 0 0 0-.738.73v5.18c-1.683.339-2.954 1.811-2.954 3.573v18.236c0 .404.33.73.739.73h8.861a.733.733 0 0 0 .738-.73V22.28c0-1.76-1.27-3.234-2.953-3.573Zm-2.954-4.45h1.477v4.376h-1.477v-4.377ZM19.2 20.09h2.954c1.222 0 2.215.982 2.215 2.188v.73h-7.384v-.73c0-1.206.994-2.188 2.215-2.188Zm5.17 16.777h-7.385V35.41h2.954v-1.46h-2.954v-9.483h7.384v12.401Zm-7.385 2.918v-1.459h7.384v1.459h-7.384ZM41.77 17.666H29.308a.703.703 0 0 0-.692.715v22.15c0 .395.31.714.692.714H41.77c.382 0 .692-.32.692-.714V18.38a.703.703 0 0 0-.692-.715Zm-.693 22.15H30V19.095h11.077v20.72Z"/>
        <path d="M10.154 32.176H8.308v.907h1.846v-.907Zm12.923 1.814h-1.846v1.813h1.846V33.99Zm-2.307-1.814c1.781 0 3.23-1.424 3.23-3.174s-1.449-3.174-3.23-3.174c-1.782 0-3.231 1.424-3.231 3.174s1.449 3.174 3.23 3.174Zm0-4.761c.89 0 1.615.712 1.615 1.587s-.725 1.587-1.616 1.587c-.89 0-1.615-.712-1.615-1.587s.724-1.587 1.615-1.587Zm13.038-2.495h3.461c1.337 0 2.424-1.016 2.424-2.266s-1.087-2.267-2.424-2.267h-3.461c-1.336 0-2.423 1.017-2.423 2.267s1.087 2.267 2.423 2.267Zm4.5-2.266c0 .535-.466.971-1.039.971h-1.038v-1.943h1.038c.573 0 1.039.436 1.039.972Zm-4.5-.972h1.038v1.943h-1.038c-.573 0-1.039-.436-1.039-.971 0-.536.466-.972 1.039-.972Zm0 10.494h3.461c1.337 0 2.424-1.22 2.424-2.72 0-1.501-1.087-2.721-2.424-2.721h-3.461c-1.336 0-2.423 1.22-2.423 2.72 0 1.5 1.087 2.72 2.423 2.72Zm4.5-2.72c0 .642-.466 1.165-1.039 1.165h-1.038V28.29h1.038c.573 0 1.039.523 1.039 1.166Zm-4.5-1.167h1.038v2.332h-1.038c-.573 0-1.039-.523-1.039-1.166 0-.643.466-1.166 1.039-1.166Zm0 10.235h3.461c1.337 0 2.424-1.22 2.424-2.72 0-1.5-1.087-2.721-2.424-2.721h-3.461c-1.336 0-2.423 1.22-2.423 2.72 0 1.5 1.087 2.721 2.423 2.721Zm4.5-2.72c0 .642-.466 1.166-1.039 1.166h-1.038v-2.332h1.038c.573 0 1.039.523 1.039 1.166Zm-4.5-1.166h1.038v2.332h-1.038c-.573 0-1.039-.523-1.039-1.166 0-.643.466-1.166 1.039-1.166Z"/>
      </g>
      <defs>
        <clipPath id="a">
          <path fill="#fff" d="M0 .5h48v48H0z"/>
        </clipPath>
      </defs>
    </symbol>
    <symbol id="icon-crown" width="48" height="48" viewBox="0 0 48 48">
      <path d="M44.531 15.49a2.532 2.532 0 0 0-1.325-.638 2.428 2.428 0 0 0-1.431.225l-9.469 4.62a.332.332 0 0 1-.4-.044.388.388 0 0 1-.087-.121L26.287 8.6a2.765 2.765 0 0 0-.957-1.092 2.43 2.43 0 0 0-1.33-.4 2.43 2.43 0 0 0-1.33.401 2.77 2.77 0 0 0-.958 1.092l-5.53 10.93a.388.388 0 0 1-.089.122.348.348 0 0 1-.124.075c-.045.015-.093.02-.14.015a.332.332 0 0 1-.135-.046l-9.47-4.62a2.413 2.413 0 0 0-1.429-.233 2.513 2.513 0 0 0-1.325.635 2.91 2.91 0 0 0-.818 1.31 3.164 3.164 0 0 0-.065 1.588L7.37 40.714c.08.377.23.733.44 1.045.21.312.474.574.778.77.401.27.862.412 1.332.412.24-.002.48-.037.712-.103a45.837 45.837 0 0 1 26.719-.02c.34.108.698.139 1.05.09a2.449 2.449 0 0 0 1-.37 2.73 2.73 0 0 0 .785-.773c.212-.314.364-.671.446-1.051l4.763-22.337a3.118 3.118 0 0 0-.052-1.581 2.87 2.87 0 0 0-.81-1.307ZM43.22 17.8l-4.782 22.336a.477.477 0 0 1-.168.268.43.43 0 0 1-.3.042 47.873 47.873 0 0 0-27.938 0 .34.34 0 0 1-.295-.043.39.39 0 0 1-.112-.114.434.434 0 0 1-.062-.153L4.782 17.8a.475.475 0 0 1 .078-.353.402.402 0 0 1 .132-.117.365.365 0 0 1 .164-.045l.15.041 9.488 4.64a2.388 2.388 0 0 0 1.898.105 2.689 2.689 0 0 0 1.458-1.342l5.53-10.932a.38.38 0 0 1 .131-.158.333.333 0 0 1 .375 0 .381.381 0 0 1 .132.158l5.53 10.931c.316.633.837 1.112 1.459 1.342.622.23 1.3.192 1.898-.104l9.488-4.64a.344.344 0 0 1 .393.06.415.415 0 0 1 .12.187.452.452 0 0 1 .012.226ZM31.125 33.473a1.304 1.304 0 0 1-.371.791 1.09 1.09 0 0 1-.754.323h-.113a53.518 53.518 0 0 0-11.775 0 1.055 1.055 0 0 1-.823-.265 1.275 1.275 0 0 1-.414-.828 1.346 1.346 0 0 1 .254-.907 1.12 1.12 0 0 1 .758-.454 52.683 52.683 0 0 1 12.225 0c.294.036.563.196.752.446.188.25.282.57.26.894Z"/>
    </symbol>
    <symbol id="icon-telephone" width="42" height="42" viewBox="0 0 42 42">
      <path d="m36.297 30.131-.228-.283c-1.8-2.277-3.306-3.461-4.597-3.617-1.117-.153-2.197.62-3.345 1.414l-1.226.766a2.647 2.647 0 0 1-.429.173c-.718.204-2.529.323-3.554-.616-1.194-1.091-3.045-3.09-4.485-4.837-1.376-1.807-2.888-4.061-3.677-5.48-.667-1.203-.109-2.884.264-3.508a2.43 2.43 0 0 1 .277-.362l1.081-.999c.016-.016.023-.035.037-.049.01-.01.028-.007.04-.016.977-.824 1.986-1.673 2.125-2.763.162-1.281-.634-3.013-2.438-5.288l-.22-.284c-1.117-1.431-2.806-3.596-5.232-3.24-.953.143-1.805.468-2.684 1.02-.009.005-.014.015-.021.02-.007.006-.016.006-.023.01L6.74 3.1c-.012.007-.02.023-.031.034-.01.008-.023.01-.034.019a16.29 16.29 0 0 0-.423.367C5.01 4.625 2.324 7.837 4.156 13.776c1.183 3.836 3.623 8.313 7.072 12.971l-.034.028 1.903 2.37.016-.013c3.74 4.424 7.546 7.844 11.033 9.914 2.328 1.383 4.361 1.84 6.034 1.84 2.202 0 3.779-.792 4.57-1.306l.496-.333c.056-.038.097-.093.137-.142l1.083-.815c.012-.01.02-.024.032-.035.005-.005.014-.004.02-.009.77-.703 1.304-1.44 1.675-2.313.961-2.239-.759-4.382-1.896-5.802Zm.61 5.252c-.288.68-.71 1.257-1.32 1.817l-1.611 1.212c-1.46.949-4.58 2.121-9.112-.57-3.488-2.07-7.328-5.57-11.106-10.122l-1.022-1.291c-3.557-4.718-6.06-9.237-7.241-13.066-1.535-4.979.399-7.65 1.694-8.802.131-.12.262-.23.392-.34l.005-.005 1.174-.87c.714-.451 1.376-.703 2.137-.819 1.626-.245 2.949 1.47 3.92 2.716l.227.289c2.017 2.543 2.21 3.752 2.148 4.245-.07.548-.903 1.25-1.638 1.868l-.104.087-.008.012c-.005.004-.01.005-.016.009l-1.118 1.034c-.007.007-.01.016-.018.025-.007.008-.02.012-.028.02a3.93 3.93 0 0 0-.443.59c-.628 1.052-1.221 3.226-.285 4.907.817 1.47 2.373 3.793 3.803 5.669 1.494 1.813 3.4 3.87 4.636 5 .925.845 2.213 1.128 3.328 1.128a5.9 5.9 0 0 0 1.56-.2c.218-.062.444-.153.677-.267.014-.007.02-.02.035-.028.007-.003.017-.002.024-.007l1.299-.812c.042-.028.07-.065.105-.1l.015.018c.8-.555 1.712-1.206 2.283-1.111.505.06 1.653.547 3.673 3.097l.233.292c.983 1.227 2.33 2.907 1.702 4.375Z"/>
    </symbol>
    <symbol id="icon-facebook" width="42" height="42" viewBox="0 0 42 42">
      <path d="M31.482 2.793a48.968 48.968 0 0 0-5.314-.273c-5.886 0-9.543 3.749-9.543 9.783v4.096H11.68a.875.875 0 0 0-.875.875v6.738a.875.875 0 0 0 .875.875h4.944v13.51a.875.875 0 0 0 .875.875h6.961a.875.875 0 0 0 .875-.875v-13.51h4.928a.875.875 0 0 0 .868-.762l.87-6.737a.877.877 0 0 0-.868-.989h-5.798v-3.428c0-1.697.342-2.406 2.464-2.406h3.569a.875.875 0 0 0 .875-.875V3.66a.875.875 0 0 0-.762-.868Zm-.988 6.02-2.695.002c-3.775 0-4.213 2.373-4.213 4.156v4.305a.875.875 0 0 0 .874.875h5.68l-.646 4.988h-5.033a.875.875 0 0 0-.875.875V37.52h-5.211V24.013a.875.875 0 0 0-.875-.875h-4.942v-4.987H17.5a.875.875 0 0 0 .875-.875v-4.973c0-5.03 2.914-8.033 7.793-8.033 1.765 0 3.36.096 4.326.18v4.363Z"/>
    </symbol>
    <symbol id="icon-instagram" width="42" height="42" viewBox="0 0 42 42">
      <path d="M21 13.453a7.547 7.547 0 1 0 0 15.093 7.547 7.547 0 0 0 0-15.093Zm0 13.125A5.578 5.578 0 1 1 26.578 21 5.594 5.594 0 0 1 21 26.578Zm7.219-21.656H13.78a8.86 8.86 0 0 0-8.86 8.86v14.437a8.86 8.86 0 0 0 8.86 8.86h14.44a8.86 8.86 0 0 0 8.86-8.86V13.78a8.86 8.86 0 0 0-8.86-8.86Zm6.89 23.297a6.89 6.89 0 0 1-6.89 6.89H13.78a6.89 6.89 0 0 1-6.89-6.89V13.78a6.89 6.89 0 0 1 6.89-6.89h14.44a6.89 6.89 0 0 1 6.89 6.89v14.44Zm-3.937-15.75a1.64 1.64 0 1 1-3.28 0 1.64 1.64 0 0 1 3.28 0Z"/>
    </symbol>
  </defs>
</svg>
